<svg xmlns="http://www.w3.org/2000/svg" xmlns:xlink="http://www.w3.org/1999/xlink" viewBox="0 0 1156.3 898.45">
  <defs>
    <style>
      .cls-1 {
        fill: #ed919e;
      }

      .cls-1, .cls-12, .cls-14, .cls-15, .cls-16, .cls-20, .cls-21, .cls-22, .cls-3, .cls-4, .cls-5, .cls-6, .cls-8, .cls-9 {
        stroke: #000;
        stroke-miterlimit: 10;
      }

      .cls-2 {
        opacity: 0.3;
        fill: url(#linear-gradient);
      }

      .cls-3 {
        fill: url(#linear-gradient-2);
      }

      .cls-4 {
        fill: #f7f0eb;
      }

      .cls-5 {
        fill: #ffefe0;
      }

      .cls-6, .cls-7 {
        fill: #d3af90;
      }

      .cls-7 {
        opacity: 0.74;
      }

      .cls-8 {
        fill: url(#linear-gradient-3);
      }

      .cls-9 {
        fill: url(#linear-gradient-4);
      }

      .cls-10, .cls-18, .cls-19 {
        fill: #361013;
      }

      .cls-11, .cls-12 {
        fill: #fed9ca;
      }

      .cls-13 {
        fill: #ffbdb3;
      }

      .cls-14, .cls-15 {
        stroke-width: 4px;
      }

      .cls-14 {
        fill: url(#linear-gradient-5);
      }

      .cls-15 {
        fill: url(#linear-gradient-6);
      }

      .cls-16 {
        fill: #eaaba4;
      }

      .cls-17, .cls-23 {
        fill: #fff;
      }

      .cls-18 {
        opacity: 0.49;
      }

      .cls-19 {
        opacity: 0.24;
      }

      .cls-20, .cls-21 {
        fill: none;
      }

      .cls-20 {
        stroke-width: 2px;
      }

      .cls-21 {
        stroke-width: 6px;
      }

      .cls-22 {
        stroke-width: 0.25px;
      }

      .cls-23 {
        opacity: 0.45;
      }
    </style>
    <linearGradient id="linear-gradient" x1="737" y1="774.13" x2="1227.01" y2="774.13" gradientUnits="userSpaceOnUse">
      <stop offset="0.55" stop-color="#1e080b"/>
      <stop offset="1" stop-color="#512c20"/>
    </linearGradient>
    <linearGradient id="linear-gradient-2" x1="982.19" y1="588.11" x2="982.87" y2="460.68" gradientUnits="userSpaceOnUse">
      <stop offset="0.71" stop-color="#fed9ca"/>
      <stop offset="1" stop-color="#ffa79e"/>
    </linearGradient>
    <linearGradient id="linear-gradient-3" x1="713.53" y1="752.24" x2="720.15" y2="930.74" gradientTransform="matrix(1.08, 0.01, 0.01, 1.07, -62.63, -53.97)" gradientUnits="userSpaceOnUse">
      <stop offset="0.57" stop-color="#fed9ca"/>
      <stop offset="1" stop-color="#fed9ca"/>
    </linearGradient>
    <linearGradient id="linear-gradient-4" x1="1196.25" y1="720.56" x2="1202.85" y2="1004.95" gradientUnits="userSpaceOnUse">
      <stop offset="0.57" stop-color="#fed9ca"/>
      <stop offset="0.63" stop-color="#fed3c4"/>
      <stop offset="0.83" stop-color="#ffc4b5"/>
      <stop offset="1" stop-color="#ffbfb0"/>
    </linearGradient>
    <linearGradient id="linear-gradient-5" x1="1010.37" y1="143.81" x2="1019.22" y2="221.32" gradientUnits="userSpaceOnUse">
      <stop offset="0" stop-color="#522d1e"/>
      <stop offset="0.35" stop-color="#3b1b14"/>
      <stop offset="0.74" stop-color="#270c0c"/>
      <stop offset="1" stop-color="#200609"/>
    </linearGradient>
    <linearGradient id="linear-gradient-6" x1="1013.86" y1="441.27" x2="964.54" y2="177.48" xlink:href="#linear-gradient"/>
  </defs>
  <g id="Sweater">
    <path class="cls-1" d="M1120.5,495.5A71.19,71.19,0,0,1,1103,487c-9.08-6.08-11.62-10.89-19.5-16.5a62.68,62.68,0,0,0-23-10l-129-11a87.43,87.43,0,0,0-14,3,89.87,89.87,0,0,0-29,15,340.21,340.21,0,0,1-109,24,117.68,117.68,0,0,0-63.5,45l-96.5,121-15,14c-3.62,4.33-8,9.41-13,15-8,9-10.82,11-14,15-7.73,9.78-9.7,20.1-11.5,29.5-3.77,19.69-2.89,56.7,6,103a99.76,99.76,0,0,0,171,50,187.53,187.53,0,0,1,18-12c49.43-29,99.63-25.73,198-18,147.76,11.6,161.32,13.91,177,30,26.73,27.41,27.52,60.59,61,72,23.18,7.9,46.46,1.38,62-5,21.56-6.46,35.29-16.08,44-24,13.32-12.1,29-33,29-33l14-28c6.28-25.56,10.73-62.44-6-97-12.88-26.6-33-40.81-41-47-32.13-24.76-35-152-104-194Z" transform="translate(-381.97 -139.55)"/>
  </g>
  <g id="Layer_18" data-name="Layer 18">
    <path class="cls-2" d="M1108,819c53,180-337.09,89.44-340,44-.59-9.18,36.66.09,33-64-4-70-105-84-45-114,38-19-4.71-66.14,0-63,9,6,30.49,19.79,42,31,36.51,35.57,91.37,0,130,7,15.74,2.87,143,102,226-25,0,0-26,81-25,81,38,0,99-6,98-6-17.26,0-22,8-31,19C1170.24,760.49,1099.62,790.55,1108,819Z" transform="translate(-381.97 -139.55)"/>
  </g>
  <g id="Neck">
    <path class="cls-3" d="M1050,555.5c-40.19,40.1-93.36,50.79-128,30-18.69-11.22-28.23-29.34-33-42-2.92-43.63,6.89-60.2,17-67,5.63-3.79,14.54-6.7,19-16,4.16-8.68,2.23-18.3,0-25h130c-4.75,11.61-9,27.66-2,41,6.42,12.28,17.55,13.15,22,23C1079.08,508.55,1077.27,524.64,1050,555.5Z" transform="translate(-381.97 -139.55)"/>
  </g>
  <g id="Coffee_Cup_Handle" data-name="Coffee Cup Handle">
    <path class="cls-4" d="M873.66,683c.82,25.79,11.25,53.89,21.76,54,6.67.07,9.53-11.16,14.51-10L912,757c-.31.37-5.9,6.87-13.47,7-19,.33-40.88-39.63-43.52-77-2.31-32.77,9.47-73.26,29-77,7.19-1.37,17.62,0,20.73,8,.36.94,0,24,0,24-4.63,1.62-9-9.7-15.55-9C879.64,634,872.93,660.07,873.66,683Z" transform="translate(-381.97 -139.55)"/>
  </g>
  <g id="Table">
    <polygon class="cls-5" points="1155.33 859.95 1.03 859.95 122.27 704.95 1046.54 705.95 1155.33 859.95"/>
    <rect class="cls-6" x="1.53" y="859.95" width="1154" height="38"/>
    <path class="cls-7" d="M496.54,946.5c0,2.4,184.06,6.24,256.83,7.76,314.92,6.59,573.74,9.86,757.63,9.74,0,0-9-13-12-17C688.65,942.34,496.51,944.05,496.54,946.5Z" transform="translate(-381.97 -139.55)"/>
    <path class="cls-7" d="M1378,892q0,3.84-916.34,9.19l11.52-15.28Q1378,888.21,1378,892Z" transform="translate(-381.97 -139.55)"/>
  </g>
  <g id="Arms">
    <path class="cls-8" d="M823.93,695.45c-13-22.24-64-17.74-86.17-13.8-32,5.67-108.23,25.53-130.31,81.25-14.68,37-.09,72.63,1.9,77.3,9.7,22.72,34.11,58,65.15,59.73,9.12.51,75.37,9.39,109.47-120.12C784,779.81,829.86,705.57,823.93,695.45Z" transform="translate(-381.97 -139.55)"/>
    <path class="cls-9" d="M1093.85,745.88c-2.69-27.12,16.85-58,38.15-60.88,10.26-1.37,18.88,5,23,8,101.17,74.18,124.06,76.37,140.85,117.88,14,34.64.81,67.67-1,72-1.55,3.71-21.87,51-60,55C1199.16,941.64,1166,894,1148,850c-13-31.73-28.86-54.62-39-71C1099.83,764.18,1095,757.53,1093.85,745.88Z" transform="translate(-381.97 -139.55)"/>
  </g>
  <g id="Coffee_Cup" data-name="Coffee Cup">
    <path class="cls-4" d="M1027,821c-.32,3-1,10-9,14-18,9-71,12-96,0-8.32-4-8.87-11.87-9-15-2-48-6-127-11-218-.3-5.54-1.15-17.54,7-19,39-7,100-5,134,4,6.72,1.78,5.52,14.49,5,19C1038,693,1034,756,1027,821Z" transform="translate(-381.97 -139.55)"/>
  </g>
  <g id="Coffee">
    <path class="cls-10" d="M1038,595c-.09,2.56-35.8,9.62-63,9-27.92-.63-64-9.41-64-12s33.36-4.75,64-4C1005.24,588.74,1038.08,592.54,1038,595Z" transform="translate(-381.97 -139.55)"/>
  </g>
  <g id="Hands">
    <path class="cls-11" d="M748.74,681.73c24.31-13.55,33.92-14.34,55.82-25,9.92-4.8,22.06-11.48,35.26-16,5.6-1.94,11.17-3.41,11.75-3.57,6.1-1.6,11.52-3,17.63-3.56,4.34-.38,15.71-1.3,23.42,3.37,11.45,6.92,11.93,24.44,12.38,41,.47,17.1,1.1,40.39-15,55a42,42,0,0,1-18.7,10.24c-9.63,2.25-25,1.68-33.22,1.4a25.6,25.6,0,0,0-7.55.77,33.67,33.67,0,0,0-5.88,2.29s-1.76.78-10.07,3.81c-6,2.21-21,2.59-32.73-.76-30-8.58-53.29-45.81-42.9-61.89C740.26,686.83,741.81,685.59,748.74,681.73Z" transform="translate(-381.97 -139.55)"/>
    <path class="cls-12" d="M1093,636c6.89,8.07,17.92,24.55,14,29-5.09,5.78-37.41-6.5-51-31.5-7-13-9.08-29.4-5-31.5,2.16-1.11,5.06,2.29,20,15C1087.46,631,1088.56,630.8,1093,636Z" transform="translate(-381.97 -139.55)"/>
    <path class="cls-11" d="M1160,725c-6,26.67-59.28,36.51-89,37-45,.74-103.13-18.83-111-54-1.81-8.1,1.55-17.81,7-37,5.82-20.48,8.72-30.72,14-35,14-11.39,39.36-5.26,90,7l1.83.45C1110.22,652.92,1166.86,694.66,1160,725Z" transform="translate(-381.97 -139.55)"/>
    <path class="cls-13" d="M1009,901" transform="translate(-381.97 -139.55)"/>
  </g>
  <g id="Bun">
    <path class="cls-14" d="M1094,202c.52,11.73-3.57,28.84-15,34-9.34,4.21-15-3.44-38-9-12.14-2.93-32-7.71-54-3-17.34,3.71-25.86,11.14-35,6-6.54-3.68-8.74-11.18-10-15.5-5.1-17.42.84-37.9,11-50.5,24.91-30.91,86.65-28.63,119-1C1077,167.22,1093.07,181,1094,202Z" transform="translate(-381.97 -139.55)"/>
  </g>
  <g id="Bulk_Hair" data-name="Bulk Hair">
    <path class="cls-15" d="M1120,413c-32.74,51-114.14,41.15-119.14,41.09C948.48,453.42,876.51,426,859,367s33.84-115.83,43-128c8.74-11.62,36.81-52,93-58,10-1.07,58-4.92,91,27,20.72,20,30,52.92,38,86,3.81,15.74,15.48,48.83,15,68C1138.77,371.37,1137,386.52,1120,413Z" transform="translate(-381.97 -139.55)"/>
    <path class="cls-10" d="M1157,427" transform="translate(-381.97 -139.55)"/>
  </g>
  <g id="Face">
    <path class="cls-12" d="M1088,384c-1.66,39.32-19.31,60.7-53,84-8.87,6.13-21,14.28-38,15-22.38.95-38.85-11.54-50-20-8-6.06-41.63-29.06-47-72-1-8,1-47,23-94,0,0,85-26,110-58,0,0,23.44,24.11,34,47,12,26,7,10.32,12,28C1085,335,1088.73,366.67,1088,384Z" transform="translate(-381.97 -139.55)"/>
    <path class="cls-16" d="M908,324a139.83,139.83,0,0,0-8,25c-3.23,1.05-7.16-3.11-8-4-6.74-7.12-4.84-18.35-4-23.65,1.89-11.23,8.5-27.59,15.87-27.25,4.93.23,9.74,6.45,10.08,12.9C911.85,310.9,911,317,908,324Z" transform="translate(-381.97 -139.55)"/>
    <path class="cls-16" d="M1090,375s.27-4.54-1-20c-1.23-15.06-6-30-5-31,2.45-2.45,8-4.24,11-3,8.94,3.74,9.09,27.2,6,39C1097.76,372.38,1093,376.38,1090,375Z" transform="translate(-381.97 -139.55)"/>
  </g>
  <g id="Bangs">
    <path class="cls-10" d="M1151,281" transform="translate(-381.97 -139.55)"/>
  </g>
  <g id="Eyes">
    <circle class="cls-10" cx="580.53" cy="190.95" r="12.5"/>
    <circle class="cls-10" cx="666.53" cy="199.95" r="11.5"/>
    <path class="cls-10" d="M1076.23,321.63c-1.25.88-7.33-10.11-22-15.08-14-4.74-27.81-1.29-29.8-5.92a3.19,3.19,0,0,1,.16-2.59c2.3-5.33,17-5.75,27.37-2.22C1069.54,301.83,1077.82,320.51,1076.23,321.63Z" transform="translate(-381.97 -139.55)"/>
    <path class="cls-10" d="M931,308.85c1.22,1,10-9.18,27.21-12.34,16.4-3,31.06,2.12,34.14-2.25a3,3,0,0,0,.31-2.61c-1.55-5.59-17.81-7.82-29.91-5.57C942.18,289.92,929.49,307.54,931,308.85Z" transform="translate(-381.97 -139.55)"/>
    <circle class="cls-17" cx="578.03" cy="185.45" r="4"/>
    <circle class="cls-17" cx="664.03" cy="195.45" r="4"/>
  </g>
  <g id="Lips_Nose" data-name="Lips Nose">
    <ellipse class="cls-18" cx="607.03" cy="246.45" rx="3" ry="2"/>
    <ellipse class="cls-18" cx="626.03" cy="248.45" rx="3" ry="2"/>
    <polygon class="cls-19" points="569.03 267.45 594.03 276.45 628.03 279.45 651.03 276.45 621.03 268.45 612.03 270.45 603.03 266.45 569.03 267.45"/>
    <polyline class="cls-18" points="569.03 267.45 596.03 284.45 626.03 286.25 651.03 276.45"/>
  </g>
  <g id="Glasses">
    <path class="cls-20" d="M990.5,342.5A61.32,61.32,0,0,1,957,347a60.66,60.66,0,0,1-24.5-9.5,22.24,22.24,0,0,1-2.71-8.24A20.61,20.61,0,0,1,930,323a21.11,21.11,0,0,1,4.5-9.5A88.34,88.34,0,0,1,993,319a15.92,15.92,0,0,1-2.5,23.5Z" transform="translate(-381.97 -139.55)"/>
    <path class="cls-20" d="M1019.61,345a49.36,49.36,0,0,0,57.39,4,18.41,18.41,0,0,0,4-9,18.92,18.92,0,0,0-3-13,65.59,65.59,0,0,0-55.67-4.25,14.85,14.85,0,0,0-2.72,22.23Z" transform="translate(-381.97 -139.55)"/>
    <path class="cls-21" d="M997,329a22.25,22.25,0,0,1,11-1,22,22,0,0,1,8,3" transform="translate(-381.97 -139.55)"/>
    <path class="cls-20" d="M923,325" transform="translate(-381.97 -139.55)"/>
    <path class="cls-22" d="M922.1,322.17l.2-.77,2.13-8.08,8.72,2.31a16.32,16.32,0,0,0-3.1,5.78,17.2,17.2,0,0,0-.6,7.17Z" transform="translate(-381.97 -139.55)"/>
    <polyline class="cls-22" points="542.46 173.78 538.03 164.45 535.03 171.45 540.12 182.62 543.09 173.94"/>
    <path class="cls-22" d="M1086.62,326.35l1.26,6.32.57,4.53-6.67,3.77c.48-1.26-.07-2.09-.24-5.11-.2-3.36-3.07-6.12-3.76-7.33a26.85,26.85,0,0,1,3.92-1.34A28.12,28.12,0,0,1,1086.62,326.35Z" transform="translate(-381.97 -139.55)"/>
  </g>
  <g id="Layer_23" data-name="Layer 23">
    <path class="cls-23" d="M918,725c-2.58-44.48-1.4-116.81,1-117,2-.16,3.82,49.11,7,114,2.67,54.37,4.87,78.94,3,79S920.63,770.42,918,725Z" transform="translate(-381.97 -139.55)"/>
  </g>
</svg>
