<svg width="259" height="98" viewBox="0 0 259 98" fill="none" xmlns="http://www.w3.org/2000/svg">
<path d="M29.0584 72L18.1942 53.3477H10.9951V72H5.0394V26.3836H19.7649C23.2118 26.3836 26.1133 26.9726 28.4694 28.1506C30.8691 29.3287 32.658 30.9212 33.836 32.9283C35.014 34.9353 35.6031 37.2259 35.6031 39.8002C35.6031 42.9416 34.6868 45.7122 32.8543 48.1119C31.0654 50.5116 28.3603 52.1042 24.7389 52.8895L36.1921 72H29.0584ZM10.9951 48.57H19.7649C22.9936 48.57 25.4152 47.7847 27.0295 46.214C28.6439 44.5996 29.4511 42.4617 29.4511 39.8002C29.4511 37.095 28.6439 35.0007 27.0295 33.5173C25.4588 32.0338 23.0373 31.2921 19.7649 31.2921H10.9951V48.57ZM47.9331 30.3104C46.7987 30.3104 45.8388 29.9177 45.0535 29.1323C44.2681 28.347 43.8754 27.3871 43.8754 26.2527C43.8754 25.1183 44.2681 24.1584 45.0535 23.373C45.8388 22.5877 46.7987 22.195 47.9331 22.195C49.0239 22.195 49.9402 22.5877 50.6819 23.373C51.4673 24.1584 51.8599 25.1183 51.8599 26.2527C51.8599 27.3871 51.4673 28.347 50.6819 29.1323C49.9402 29.9177 49.0239 30.3104 47.9331 30.3104ZM50.8128 36.1351V72H44.8571V36.1351H50.8128ZM73.6599 72.589C70.9111 72.589 68.4459 72.1309 66.2644 71.2146C64.0828 70.2548 62.3594 68.9458 61.0941 67.2878C59.8288 65.5862 59.1307 63.6446 58.9998 61.4631H65.1518C65.3263 63.2519 66.1553 64.7136 67.6388 65.848C69.1659 66.9824 71.1511 67.5496 73.5944 67.5496C75.8632 67.5496 77.6521 67.0479 78.9611 66.0443C80.27 65.0408 80.9245 63.7755 80.9245 62.2484C80.9245 60.6777 80.2264 59.5215 78.8302 58.7797C77.434 57.9944 75.2742 57.2308 72.3509 56.4891C69.6894 55.791 67.5079 55.0929 65.8063 54.3948C64.1483 53.6531 62.7084 52.5841 61.4868 51.1879C60.3087 49.7481 59.7197 47.8719 59.7197 45.5595C59.7197 43.727 60.2651 42.0472 61.3559 40.5201C62.4466 38.993 63.9956 37.7931 66.0026 36.9205C68.0096 36.0043 70.3003 35.5461 72.8745 35.5461C76.8449 35.5461 80.0518 36.5496 82.4952 38.5567C84.9385 40.5637 86.2475 43.3125 86.422 46.803H80.4663C80.3354 44.9268 79.5719 43.4216 78.1757 42.2871C76.8231 41.1527 74.9906 40.5855 72.6782 40.5855C70.5402 40.5855 68.8386 41.0437 67.5733 41.9599C66.308 42.8762 65.6754 44.076 65.6754 45.5595C65.6754 46.7375 66.0462 47.7192 66.788 48.5046C67.5733 49.2463 68.5332 49.8572 69.6676 50.3371C70.8457 50.7734 72.46 51.2752 74.5107 51.8424C77.0849 52.5405 79.1792 53.2386 80.7936 53.9367C82.4079 54.5911 83.7823 55.5947 84.9167 56.9472C86.0948 58.2998 86.7056 60.0669 86.7492 62.2484C86.7492 64.2118 86.2038 65.9789 85.1131 67.5496C84.0223 69.1203 82.4734 70.3638 80.4663 71.2801C78.5029 72.1527 76.2341 72.589 73.6599 72.589ZM102.421 41.0437V62.183C102.421 63.9282 102.792 65.1717 103.534 65.9134C104.276 66.6115 105.563 66.9606 107.395 66.9606H111.78V72H106.413C103.097 72 100.61 71.2365 98.9525 69.7094C97.2945 68.1823 96.4655 65.6735 96.4655 62.183V41.0437H91.8188V36.1351H96.4655V27.1035H102.421V36.1351H111.78V41.0437H102.421ZM124.952 41.9599C125.999 39.9092 127.482 38.3167 129.402 37.1823C131.366 36.0479 133.743 35.4807 136.536 35.4807V41.6327H134.965C128.29 41.6327 124.952 45.2541 124.952 52.4969V72H118.996V36.1351H124.952V41.9599ZM185.572 41.0437V62.183C185.572 63.9282 185.943 65.1717 186.684 65.9134C187.426 66.6115 188.713 66.9606 190.546 66.9606H194.931V72H189.564C186.248 72 183.761 71.2365 182.103 69.7094C180.445 68.1823 179.616 65.6735 179.616 62.183V41.0437H174.969V36.1351H179.616V27.1035H185.572V36.1351H194.931V41.0437H185.572ZM209.411 41.0437V62.183C209.411 63.9282 209.782 65.1717 210.524 65.9134C211.266 66.6115 212.553 66.9606 214.385 66.9606H218.77V72H213.404C210.088 72 207.601 71.2365 205.943 69.7094C204.285 68.1823 203.456 65.6735 203.456 62.183V41.0437H198.809V36.1351H203.456V27.1035H209.411V36.1351H218.77V41.0437H209.411Z" fill="#F0E4D4"/>
<path d="M240.958 69.6035C249.219 69.6035 255.916 62.7527 255.916 54.3018C255.916 45.8508 249.219 39 240.958 39C232.697 39 226 45.8508 226 54.3018C226 62.7527 232.697 69.6035 240.958 69.6035Z" stroke="#F0E4D4" stroke-width="5.84561" stroke-miterlimit="10"/>
<path d="M155.252 69.1157C163.513 69.1157 170.21 62.2649 170.21 53.814C170.21 45.363 163.513 38.5122 155.252 38.5122C146.991 38.5122 140.294 45.363 140.294 53.814C140.294 62.2649 146.991 69.1157 155.252 69.1157Z" stroke="#F0E4D4" stroke-width="5.84561" stroke-miterlimit="10"/>
<path d="M170.21 53.814H140.294" stroke="#F0E4D4" stroke-width="3.09474" stroke-miterlimit="10"/>
<path d="M241.13 69.26V39.3442" stroke="#F0E4D4" stroke-width="3.09474" stroke-miterlimit="10"/>
</svg>
